<?xml version="1.0" standalone="no"?>
<!DOCTYPE svg PUBLIC "-//W3C//DTD SVG 20010904//EN"
 "http://www.w3.org/TR/2001/REC-SVG-20010904/DTD/svg10.dtd">
<svg version="1.0" xmlns="http://www.w3.org/2000/svg"
 width="607.000000pt" height="362.000000pt" viewBox="0 0 607.000000 362.000000"
 preserveAspectRatio="xMidYMid meet">

<g transform="translate(0.000000,362.000000) scale(0.100000,-0.100000)"
fill="#000000" stroke="none">
<path d="M1752 2273 c-107 -52 -170 -224 -195 -535 l-12 -142 -80 -42 c-123
-66 -315 -124 -315 -95 0 6 20 36 45 67 50 61 58 101 25 134 -45 45 -126 13
-161 -64 l-18 -40 -6 29 c-32 139 -63 226 -84 239 -16 10 -13 -20 5 -56 52
-100 83 -451 65 -723 -7 -93 -18 -200 -25 -238 -10 -51 -10 -71 -1 -83 19 -27
49 -12 64 31 20 60 27 402 10 567 -16 162 -16 198 5 253 20 52 45 75 82 78 45
3 43 -32 -6 -114 -23 -38 -40 -77 -38 -87 9 -46 176 -11 338 70 47 23 88 44
93 46 4 2 7 -62 7 -143 l0 -146 31 3 c30 3 32 6 50 76 30 112 67 198 108 244
53 59 71 50 72 -39 0 -94 16 -134 59 -155 72 -36 160 -11 226 65 25 29 38 38
41 28 11 -28 44 -51 75 -51 23 0 40 10 68 39 l36 38 28 -23 c16 -15 40 -24 59
-24 38 0 108 30 155 67 18 14 35 23 36 22 2 -2 8 -54 15 -115 11 -113 35 -219
63 -285 22 -50 76 -109 101 -109 19 0 18 3 -11 33 -62 64 -89 175 -99 403 l-6
152 35 88 c20 49 41 108 47 131 l11 42 58 6 c31 3 81 8 110 11 28 3 52 10 52
16 0 6 -36 7 -107 3 -99 -7 -106 -6 -99 10 12 32 36 187 36 234 0 52 -21 91
-50 91 -45 0 -100 -122 -122 -268 -6 -42 -13 -79 -15 -82 -2 -2 -38 -7 -80
-10 -47 -3 -78 -10 -80 -17 -4 -10 15 -11 78 -6 l82 6 -6 -48 c-4 -26 -7 -93
-7 -149 l0 -102 -70 -46 c-116 -77 -160 -73 -160 15 0 36 -2 38 -27 35 -19 -2
-29 -10 -34 -29 -15 -59 -80 -117 -109 -99 -32 20 24 150 70 165 14 4 28 1 40
-10 23 -21 36 -3 14 19 -21 21 -72 20 -110 -3 -32 -19 -47 -37 -118 -137 -65
-91 -152 -128 -196 -84 -17 17 -20 33 -20 99 0 64 -4 83 -21 105 -31 39 -86
37 -129 -6 -36 -37 -71 -102 -91 -166 -18 -61 -29 -35 -29 68 l0 86 41 39
c124 120 249 385 249 527 0 49 -4 63 -25 83 -29 29 -74 32 -123 8z m112 -23
c17 -17 18 -96 1 -160 -32 -125 -154 -352 -224 -414 l-21 -19 0 88 c0 171 43
381 93 457 38 57 116 82 151 48z m909 -88 c-2 -42 -11 -111 -21 -152 -17 -72
-19 -75 -48 -78 l-31 -3 14 93 c16 112 39 207 55 225 22 26 33 -5 31 -85z
m-75 -343 c-17 -49 -32 -88 -35 -85 -3 2 -2 43 2 90 7 86 7 86 35 86 l29 0
-31 -91z"/>
</g>
</svg>
